<?xml version="1.0" encoding="UTF-8"?>
<svg id="Layer_2" data-name="Layer 2" xmlns="http://www.w3.org/2000/svg" xmlns:xlink="http://www.w3.org/1999/xlink" viewBox="0 0 354.12 354.12">
  <defs>
    <linearGradient id="linear-gradient" x1="106.97" y1="316.19" x2="106.97" y2="285.77" gradientUnits="userSpaceOnUse">
      <stop offset="0" stop-color="#fbc10f"/>
      <stop offset="1" stop-color="#f3941c"/>
    </linearGradient>
    <linearGradient id="linear-gradient-2" x1="173.95" y1="316.51" x2="173.95" y2="285.86" xlink:href="#linear-gradient"/>
    <linearGradient id="linear-gradient-3" x1="145.27" y1="316.03" x2="145.27" y2="285.8" xlink:href="#linear-gradient"/>
    <linearGradient id="linear-gradient-4" x1="202.51" y1="316.55" x2="202.51" y2="285.23" xlink:href="#linear-gradient"/>
    <linearGradient id="linear-gradient-5" x1="227.79" y1="316.59" x2="227.79" y2="285.3" xlink:href="#linear-gradient"/>
    <linearGradient id="linear-gradient-6" x1="255.3" y1="316.58" x2="255.3" y2="285.17" xlink:href="#linear-gradient"/>
    <linearGradient id="linear-gradient-7" x1="176.89" y1="23.06" x2="176.89" y2="274.53" xlink:href="#linear-gradient"/>
  </defs>
  <g id="Layer_1-2" data-name="Layer 1">
    <g>
      <rect width="354.12" height="354.12" rx="53.12" ry="53.12" fill="#fff" stroke-width="0"/>
      <path d="M104.78,298.49c-1.29,4.46-2.48,8.61-3.68,12.77-.43,1.48-.9,2.94-1.27,4.43-.2.79-.6,1.07-1.39,1.04-1.59-.04-3.19-.06-4.78,0-.83.03-1.13-.36-1.38-1.07-3.17-9.18-6.36-18.36-9.59-27.53-.4-1.14-.26-1.56,1.05-1.5,1.86.08,3.74.08,5.6-.04,1.02-.06,1.47.24,1.75,1.21,1.65,5.81,3.73,11.49,5.2,17.35.04.16.11.3.24.65,1.23-3.07,1.62-6.2,2.47-9.19.83-2.9,1.6-5.82,2.33-8.75.23-.92.63-1.28,1.58-1.23,1.8.09,3.97-.52,5.32.29,1.37.82,1.3,3.22,1.85,4.92,1.45,4.49,2.8,9,4.21,13.55.83-.38.76-1.17.91-1.81,1.22-5.24,2.51-10.45,3.91-15.65.27-1.01.7-1.33,1.68-1.31,1.81.03,3.63-.02,5.44-.09,1.02-.04,1.4.18,1.02,1.31-3.1,9.21-6.16,18.44-9.19,27.67-.32.96-.83,1.31-1.81,1.23-1.8-.15-3.97.66-5.32-.3-1.35-.96-1.35-3.24-1.92-4.95-1.41-4.21-2.75-8.45-4.22-13Z" fill="#130a06" stroke-width="0"/>
      <path d="M184.72,298.43c-.08,2.32.38,5.81-.17,9.24-1.01,6.32-5.58,9.77-12.53,9.57-4.74-.14-8.92-1.42-11.18-6.12-.77-1.6-1.17-3.33-1.18-5.1-.04-5.99,0-11.98-.04-17.97,0-1.06.3-1.47,1.4-1.42,1.53.07,3.08.06,4.61-.03,1.11-.07,1.4.35,1.39,1.41-.05,5.16-.04,10.33-.03,15.5,0,.93.02,1.87.15,2.79.56,3.88,4.26,5.75,7.77,3.94,1.37-.7,2.07-1.89,2.29-3.41.43-3.01.19-6.03.23-9.05.04-3.24.05-6.48,0-9.73-.01-1.03.24-1.49,1.37-1.43,1.53.08,3.08.05,4.61-.02.99-.05,1.35.27,1.33,1.3-.06,3.13-.02,6.26-.02,10.53Z" fill="#130a06" stroke-width="0"/>
      <path d="M131.74,301.54c0-4.45.04-8.9-.02-13.35-.02-1.19.27-1.65,1.54-1.63,4.39.1,8.79-.2,13.18.14,4.05.32,7.34,3.02,8.43,6.8,1.26,4.37.07,8.55-3.12,11.02-1.52,1.18-3.29,1.78-5.17,1.95-2.02.19-4.06.27-6.08.26-1.19,0-1.66.33-1.6,1.6.1,2.36,0,4.72.05,7.08.03,1.03-.36,1.35-1.35,1.31-1.37-.06-2.75-.09-4.12.02-1.34.11-1.8-.28-1.77-1.7.09-4.5.03-9.01.03-13.51ZM138.94,296.74h0c0,1.04.02,2.08,0,3.12-.02.73.2,1.15,1.01,1.12,1.48-.05,2.96.03,4.43-.13,2.28-.25,3.61-1.72,3.71-3.88.11-2.38-1.11-3.96-3.44-4.46-1.57-.34-3.16-.12-4.74-.2-.83-.04-1,.42-.97,1.14.04,1.09,0,2.19,0,3.28Z" fill="#130a06" stroke-width="0"/>
      <path d="M200.62,285.97c3.42.03,6.57.75,9.25,2.98.88.73,1.09,1.38.34,2.34-.73.95-1.13,2.41-2.06,2.89-1.13.59-2-.99-3.09-1.43-1.76-.71-3.52-1.29-5.43-.96-1.46.25-2.59,1.01-2.85,2.58-.26,1.61.78,2.45,2.09,2.95,2.15.82,4.37,1.48,6.51,2.34,5.6,2.25,7.83,7.49,5.36,12.52-1.41,2.87-3.96,4.22-6.93,4.76-4.51.81-8.84.21-12.95-1.94-1.1-.58-1.28-1.11-.65-2.15.65-1.08,1.22-2.22,1.72-3.37.49-1.12.94-.98,1.78-.28,2.43,2,5.23,2.72,8.32,1.96,1.27-.31,2.42-.85,2.53-2.42.11-1.54-.89-2.33-2.09-2.83-1.87-.78-3.81-1.4-5.71-2.11-3.45-1.29-6.25-3.14-6.83-7.23-.78-5.49,2.7-9.82,8.6-10.48.71-.08,1.43-.07,2.1-.1Z" fill="#130a06" stroke-width="0"/>
      <path d="M226.08,286.05c3.34-.05,6.4.79,9.06,2.88.83.65,1.25,1.27.44,2.3-.74.94-1.09,2.41-2.02,2.93-1.14.64-1.99-.94-3.05-1.4-1.49-.64-3.02-.99-4.62-1.08-.96-.05-1.85.24-2.63.79-1.82,1.3-1.72,3.46.23,4.54,1.79,1,3.81,1.39,5.71,2.08,1.93.7,3.76,1.55,5.23,3.02,4.47,4.5,2.7,12.13-3.39,14.21-5.21,1.78-10.27,1.06-15.11-1.5-.83-.44-.97-.85-.51-1.66.64-1.15,1.21-2.34,1.72-3.55.46-1.1.85-1.24,1.84-.39,2.4,2.06,5.23,2.68,8.31,1.92,1.15-.29,2.23-.77,2.4-2.15.18-1.47-.66-2.41-1.87-3-1.18-.57-2.44-.99-3.66-1.46-1.02-.39-2.06-.76-3.08-1.16-4.52-1.75-6.41-4.91-5.83-9.51.58-4.57,3.93-7.38,8.84-7.81.65-.06,1.32,0,1.97,0Z" fill="#130a06" stroke-width="0"/>
      <path d="M240.44,301.72c-.01-6.22,2.38-11.19,8.08-13.99,5.57-2.73,11.14-2.45,16.39,1.13.27.19.52.4.78.6,1.09.83,1.5,1.72.26,2.76-.04.03-.07.09-.1.13-.76.93-1.35,2.24-2.33,2.71-1.24.59-1.87-1.13-2.93-1.62-2.99-1.4-5.94-1.66-8.8.13-3.11,1.95-4.12,5.05-3.99,8.52.12,3.41,1.22,6.46,4.61,7.93,3.49,1.51,6.81.83,9.67-1.63.96-.82,1.4-.68,2.02.26.6.91,1.28,1.79,2.02,2.6.85.93.79,1.58-.22,2.39-5.38,4.31-11.31,4.63-17.34,1.99-5.61-2.46-7.92-7.29-8.1-13.25,0-.22,0-.44,0-.66Z" fill="#130a06" stroke-width="0"/>
      <path d="M106.81,297.76c-1.29,4.46-2.48,8.61-3.68,12.77-.43,1.48-.9,2.94-1.27,4.43-.2.79-.6,1.07-1.39,1.04-1.59-.04-3.19-.06-4.78,0-.83.03-1.13-.36-1.38-1.07-3.17-9.18-6.36-18.36-9.59-27.53-.4-1.14-.26-1.56,1.05-1.5,1.86.08,3.74.08,5.6-.04,1.02-.06,1.47.24,1.75,1.21,1.65,5.81,3.73,11.49,5.2,17.35.04.16.11.3.24.65,1.23-3.07,1.62-6.2,2.47-9.19.83-2.9,1.6-5.82,2.33-8.75.23-.92.63-1.28,1.58-1.23,1.8.09,3.97-.52,5.32.29,1.37.82,1.3,3.22,1.85,4.92,1.45,4.49,2.8,9,4.21,13.55.83-.38.76-1.17.91-1.81,1.22-5.24,2.51-10.45,3.91-15.65.27-1.01.7-1.33,1.68-1.31,1.81.03,3.63-.02,5.44-.09,1.02-.04,1.4.18,1.02,1.31-3.1,9.21-6.16,18.44-9.19,27.67-.32.96-.83,1.31-1.81,1.23-1.8-.15-3.97.66-5.32-.3-1.35-.96-1.35-3.24-1.92-4.95-1.41-4.21-2.75-8.45-4.22-13Z" fill="url(#linear-gradient)" stroke-width="0"/>
      <path d="M186.45,297.7c-.08,2.32.38,5.81-.17,9.24-1.01,6.32-5.58,9.77-12.53,9.57-4.74-.14-8.92-1.42-11.18-6.12-.77-1.6-1.17-3.33-1.18-5.1-.04-5.99,0-11.98-.04-17.97,0-1.06.3-1.47,1.4-1.42,1.53.07,3.08.06,4.61-.03,1.11-.07,1.4.35,1.39,1.41-.05,5.16-.04,10.33-.03,15.5,0,.93.02,1.87.15,2.79.56,3.88,4.26,5.75,7.77,3.94,1.37-.7,2.07-1.89,2.29-3.41.43-3.01.19-6.03.23-9.05.04-3.24.05-6.48,0-9.73-.01-1.03.24-1.49,1.37-1.43,1.53.08,3.08.05,4.61-.02.99-.05,1.35.27,1.33,1.3-.06,3.13-.02,6.26-.02,10.53Z" fill="url(#linear-gradient-2)" stroke-width="0"/>
      <path d="M133.47,300.8c0-4.45.04-8.9-.02-13.35-.02-1.19.27-1.65,1.54-1.63,4.39.1,8.79-.2,13.18.14,4.05.32,7.34,3.02,8.43,6.8,1.26,4.37.07,8.55-3.12,11.02-1.52,1.18-3.29,1.78-5.17,1.95-2.02.19-4.06.27-6.08.26-1.19,0-1.66.33-1.6,1.6.1,2.36,0,4.72.05,7.08.03,1.03-.36,1.35-1.35,1.31-1.37-.06-2.75-.09-4.12.02-1.34.11-1.8-.28-1.77-1.7.09-4.5.03-9.01.03-13.51ZM140.67,296h0c0,1.04.02,2.08,0,3.12-.02.73.2,1.15,1.01,1.12,1.48-.05,2.96.03,4.43-.13,2.28-.25,3.61-1.72,3.71-3.88.11-2.38-1.11-3.96-3.44-4.46-1.57-.34-3.16-.12-4.74-.2-.83-.04-1,.42-.97,1.14.04,1.09,0,2.19,0,3.28Z" fill="url(#linear-gradient-3)" stroke-width="0"/>
      <path d="M202.36,285.23c3.42.03,6.57.75,9.25,2.98.88.73,1.09,1.38.34,2.34-.73.95-1.13,2.41-2.06,2.89-1.13.59-2-.99-3.09-1.43-1.76-.71-3.52-1.29-5.43-.96-1.46.25-2.59,1.01-2.85,2.58-.26,1.61.78,2.45,2.09,2.95,2.15.82,4.37,1.48,6.51,2.34,5.6,2.25,7.83,7.49,5.36,12.52-1.41,2.87-3.96,4.22-6.93,4.76-4.51.81-8.84.21-12.95-1.94-1.1-.58-1.28-1.11-.65-2.15.65-1.08,1.22-2.22,1.72-3.37.49-1.12.94-.98,1.78-.28,2.43,2,5.23,2.72,8.32,1.96,1.27-.31,2.42-.85,2.53-2.42.11-1.54-.89-2.33-2.09-2.83-1.87-.78-3.81-1.4-5.71-2.11-3.45-1.29-6.25-3.14-6.83-7.23-.78-5.49,2.7-9.82,8.6-10.48.71-.08,1.43-.07,2.1-.1Z" fill="url(#linear-gradient-4)" stroke-width="0"/>
      <path d="M227.82,285.32c3.34-.05,6.4.79,9.06,2.88.83.65,1.25,1.27.44,2.3-.74.94-1.09,2.41-2.02,2.93-1.14.64-1.99-.94-3.05-1.4-1.49-.64-3.02-.99-4.62-1.08-.96-.05-1.85.24-2.63.79-1.82,1.3-1.72,3.46.23,4.54,1.79,1,3.81,1.39,5.71,2.08,1.93.7,3.76,1.55,5.23,3.02,4.47,4.5,2.7,12.13-3.39,14.21-5.21,1.78-10.27,1.06-15.11-1.5-.83-.44-.97-.85-.51-1.66.64-1.15,1.21-2.34,1.72-3.55.46-1.1.85-1.24,1.84-.39,2.4,2.06,5.23,2.68,8.31,1.92,1.15-.29,2.23-.77,2.4-2.15.18-1.47-.66-2.41-1.87-3-1.18-.57-2.44-.99-3.66-1.46-1.02-.39-2.06-.76-3.08-1.16-4.52-1.75-6.41-4.91-5.83-9.51.58-4.57,3.93-7.38,8.84-7.81.65-.06,1.32,0,1.97,0Z" fill="url(#linear-gradient-5)" stroke-width="0"/>
      <path d="M242.17,300.99c-.01-6.22,2.38-11.19,8.08-13.99,5.57-2.73,11.14-2.45,16.39,1.13.27.19.52.4.78.6,1.09.83,1.5,1.72.26,2.76-.04.03-.07.09-.1.13-.76.93-1.35,2.24-2.33,2.71-1.24.59-1.87-1.13-2.93-1.62-2.99-1.4-5.94-1.66-8.8.13-3.11,1.95-4.12,5.05-3.99,8.52.12,3.41,1.22,6.46,4.61,7.93,3.49,1.51,6.81.83,9.67-1.63.96-.82,1.4-.68,2.02.26.6.91,1.28,1.79,2.02,2.6.85.93.79,1.58-.22,2.39-5.38,4.31-11.31,4.63-17.34,1.99-5.61-2.46-7.92-7.29-8.1-13.25,0-.22,0-.44,0-.66Z" fill="url(#linear-gradient-6)" stroke-width="0"/>
      <g>
        <g opacity=".77">
          <path d="M264.09,129.49c.22-11.25-.12-22.5.05-33.74.02-2.33-.65-2.84-2.89-2.81-12.57.12-25.14.02-37.71.13-2.12.02-2.7-.55-2.72-2.68,11.15-87.46-103.76-87.19-93.33-.14.03,2.34-.73,2.84-2.95,2.82-12.36-.11-24.73-.02-37.1-.1-2.09,0-2.95.29-2.94,2.75.07,60.2.05,120.41.05,180.62,58.98-.03,117.97-.06,176.95,0,2.68,0,2.6-1.15,2.6-3.04-.04-47.94-.04-95.88-.04-143.81ZM142.43,66.75c10.52-44.08,72.35-36.37,64.09,23.98.04,1.94-.72,2.34-2.49,2.32-10.03-.07-20.06-.03-30.08-.03h0c-9.83,0-19.65-.05-29.48.05-2.1.03-2.81-.51-2.7-2.68.41-7.88-.61-15.8.66-23.65Z" fill="#130a06" stroke-width="0"/>
        </g>
        <path d="M266.64,127.67c.22-11.25-.12-22.5.05-33.74.02-2.33-.65-2.84-2.89-2.81-12.57.12-25.14.02-37.71.13-2.12.02-2.7-.55-2.72-2.68,11.15-87.46-103.76-87.19-93.33-.14.03,2.34-.73,2.84-2.95,2.82-12.36-.11-24.73-.02-37.1-.1-2.09,0-2.95.29-2.94,2.75.07,60.2.05,120.41.05,180.62,58.98-.03,117.97-.06,176.95,0,2.68,0,2.6-1.15,2.6-3.04-.04-47.94-.04-95.88-.04-143.81ZM144.98,64.93c10.52-44.08,72.35-36.37,64.09,23.98.04,1.94-.72,2.34-2.49,2.32-10.03-.07-20.06-.03-30.08-.03h0c-9.83,0-19.65-.05-29.48.05-2.1.03-2.81-.51-2.7-2.68.41-7.88-.61-15.8.66-23.65Z" fill="url(#linear-gradient-7)" stroke-width="0"/>
        <g>
          <path d="M220.04,159.16l-68.63,74.89h-25.17c-1.75,0-3.15-1.75-2.8-3.5l16.78-106.29c.35-2.45,2.45-4.2,4.89-4.2h42.66c29.37,1.05,37.41,16.08,32.17,39.16l.1-.07Z" fill="#243879" stroke-width="0"/>
          <path d="M221.16,152.24c10.49,5.59,12.94,16.08,9.44,30.07-4.55,20.63-18.18,29.37-38.11,29.72l-5.59.35c-2.1,0-3.5,1.4-3.85,3.5l-4.55,27.62c-.35,2.45-2.45,4.2-4.89,4.2h-20.98c-1.75,0-3.15-1.75-2.8-3.5l7.69-50c.35-1.75,63.63-41.96,63.63-41.96Z" fill="#1d99d6" stroke-width="0"/>
          <path d="M157.11,196.64l6.99-44.4c.47-2.16,2.34-3.74,4.55-3.85h33.57c8.04,0,13.99,1.4,18.88,3.85-1.75,15.38-9.09,40.21-44.75,40.91h-15.38c-1.75,0-3.5,1.4-3.85,3.5Z" fill="#232f5e" stroke-width="0"/>
        </g>
      </g>
    </g>
  </g>
</svg>